<svg viewBox="0 0 700 840" xmlns="http://www.w3.org/2000/svg" role="img" aria-label="Detailed map of southern and central New Hampshire showing NH Jet Fun delivery area (south of Squam Lake), major highways, cities, and the 15 lakes served.">
<rect x="0" y="0" width="700" height="840" fill="#ffffff"/>
<polygon points="630,568.4 700,557.2 700,763.0 610,698.6" fill="#dCEAF6"/>
<text x="668" y="658.0" text-anchor="middle" transform="rotate(90 668 658.0)" font-family="'Segoe UI',Arial,Helvetica,sans-serif" font-size="11" font-style="italic" fill="#7fa8c8">Atlantic Ocean</text>
<polygon points="160,0.0 545,0.0 540,168.0 545,266.0 560,350.0 585,420.0 612,504.0 630,568.4 610,698.6 540,728.0 430,784.0 250,805.0 63,807.8 70,728.0 60,658.0 72,588.0 66,504.0 80,420.0 100,336.0 120,252.0 133,200.2 150,126.0" fill="#eef3f8" stroke="#0a1628" stroke-width="2.2" stroke-linejoin="round"/>
<polygon points="542,96.6 540,168.0 545,266.0 560,350.0 585,420.0 612,504.0 630,568.4 610,698.6 540,728.0 430,784.0 250,805.0 63,807.8 70,728.0 60,658.0 72,588.0 66,504.0 80,420.0 100,336.0 120,252.0 133,200.2 150,126.0 152,96.6" fill="#4db6e8" fill-opacity="0.26" stroke="#2d7dd2" stroke-width="1.3" stroke-linejoin="round"/>
<polyline points="470,784.0 477,749.0 440,691.6 397,620.2 385,560.0 370,478.8 362,420.0 353,329.0 345,252.0 320,123.2 315,42.0" fill="none" stroke="#fff" stroke-width="5" stroke-linejoin="round" stroke-linecap="round"/>
<polyline points="370,478.8 300,420.0 220,322.0 160,252.0 133,200.2 120,126.0" fill="none" stroke="#fff" stroke-width="5" stroke-linejoin="round" stroke-linecap="round"/>
<polyline points="615,728.0 630,568.4 632,504.0" fill="none" stroke="#fff" stroke-width="5" stroke-linejoin="round" stroke-linecap="round"/>
<polyline points="470,784.0 477,749.0 440,691.6 397,620.2 385,560.0 370,478.8 362,420.0 353,329.0 345,252.0 320,123.2 315,42.0" fill="none" stroke="#5b6b7d" stroke-width="2.6" stroke-linejoin="round" stroke-linecap="round"/>
<polyline points="370,478.8 300,420.0 220,322.0 160,252.0 133,200.2 120,126.0" fill="none" stroke="#5b6b7d" stroke-width="2.6" stroke-linejoin="round" stroke-linecap="round"/>
<polyline points="615,728.0 630,568.4 632,504.0" fill="none" stroke="#5b6b7d" stroke-width="2.6" stroke-linejoin="round" stroke-linecap="round"/>
<polyline points="370,478.8 450,497.0 520,515.2 573,529.2 630,568.4" fill="none" stroke="#8392a3" stroke-width="1.8" stroke-linejoin="round" stroke-linecap="round"/>
<polyline points="123,659.4 250,658.0 397,620.2 480,637.0 615,658.0" fill="none" stroke="#8392a3" stroke-width="1.8" stroke-linejoin="round" stroke-linecap="round"/>
<polyline points="630,568.4 593,484.4 557,420.0 540,336.0 530,252.0" fill="none" stroke="#8392a3" stroke-width="1.8" stroke-linejoin="round" stroke-linecap="round"/>
<polyline points="300,287.0 393,271.6 450,287.0 495,343.0" fill="none" stroke="#8392a3" stroke-width="1.8" stroke-linejoin="round" stroke-linecap="round"/>
<polygon points="408,210.0 420,193.2 432,198.8 440,184.8 452,193.2 462,179.2 472,189.0 485,182.0 495,196.0 502,210.0 498,224.0 488,221.2 480,235.2 470,226.8 462,240.8 452,232.4 444,246.4 434,238.0 426,249.2 418,235.2 412,224.0" fill="#8fcdee" stroke="#2b7cb8" stroke-width="1.3" stroke-linejoin="round"/>
<polygon points="350,86.8 360,78.4 372,81.2 382,77.0 388,86.8 382,98.0 372,100.8 362,98.0 354,92.4" fill="#8fcdee" stroke="#2b7cb8" stroke-width="1.3" stroke-linejoin="round"/>
<polygon points="373,285.6 379,273.0 386,260.4 393,249.2 397,242.2 400,247.8 393,259.0 387,270.2 381,281.4 376,289.8" fill="#8fcdee" stroke="#2b7cb8" stroke-width="1.3" stroke-linejoin="round"/>
<polygon points="282,162.4 290,156.8 297,165.2 299,182.0 298,203.0 293,218.4 286,215.6 281,198.8 280,179.2" fill="#8fcdee" stroke="#2b7cb8" stroke-width="1.3" stroke-linejoin="round"/>
<polygon points="194,344.4 201,340.2 207,348.6 208,364.0 206,380.8 201,396.2 195,393.4 191,378.0 190,358.4" fill="#8fcdee" stroke="#2b7cb8" stroke-width="1.3" stroke-linejoin="round"/>
<polygon points="494,543.2 502,537.6 510,544.6 513,555.8 509,568.4 500,572.6 493,564.2 491,553.0" fill="#8fcdee" stroke="#2b7cb8" stroke-width="1.3" stroke-linejoin="round"/>
<polygon points="476,471.8 483,467.6 489,473.2 488,484.4 481,487.2 476,480.2" fill="#8fcdee" stroke="#2b7cb8" stroke-width="1.3" stroke-linejoin="round"/>
<polygon points="524,680.4 531,677.6 536,684.6 532,691.6 526,688.8" fill="#8fcdee" stroke="#2b7cb8" stroke-width="1.3" stroke-linejoin="round"/>
<polygon points="525,660.8 532,659.4 536,666.4 531,672.0 525,667.8" fill="#8fcdee" stroke="#2b7cb8" stroke-width="1.3" stroke-linejoin="round"/>
<circle cx="397" cy="620.2" r="2.8" fill="#7b8aa0"/><text x="402" y="623.7" text-anchor="start" font-family="'Segoe UI',Arial,Helvetica,sans-serif" font-size="9.5" fill="#5a7090">Manchester</text>
<circle cx="370" cy="478.8" r="2.8" fill="#7b8aa0"/><text x="365" y="482.3" text-anchor="end" font-family="'Segoe UI',Arial,Helvetica,sans-serif" font-size="9.5" fill="#5a7090">Concord</text>
<circle cx="397" cy="763.0" r="2.8" fill="#7b8aa0"/><text x="402" y="766.5" text-anchor="start" font-family="'Segoe UI',Arial,Helvetica,sans-serif" font-size="9.5" fill="#5a7090">Nashua</text>
<circle cx="630" cy="568.4" r="2.8" fill="#7b8aa0"/><text x="635" y="571.9" text-anchor="start" font-family="'Segoe UI',Arial,Helvetica,sans-serif" font-size="9.5" fill="#5a7090">Portsmouth</text>
<circle cx="123" cy="659.4" r="2.8" fill="#7b8aa0"/><text x="128" y="662.9" text-anchor="start" font-family="'Segoe UI',Arial,Helvetica,sans-serif" font-size="9.5" fill="#5a7090">Keene</text>
<circle cx="557" cy="420.0" r="2.8" fill="#7b8aa0"/><text x="562" y="423.5" text-anchor="start" font-family="'Segoe UI',Arial,Helvetica,sans-serif" font-size="9.5" fill="#5a7090">Rochester</text>
<circle cx="477" cy="749.0" r="2.8" fill="#7b8aa0"/><text x="482" y="752.5" text-anchor="start" font-family="'Segoe UI',Arial,Helvetica,sans-serif" font-size="9.5" fill="#5a7090">Salem</text>
<line x1="152" y1="96.6" x2="542" y2="96.6" stroke="#e85f2d" stroke-width="2.6" stroke-dasharray="8 5"/>
<text x="380" y="42.0" text-anchor="middle" font-family="'Segoe UI',Arial,Helvetica,sans-serif" font-size="12" fill="#5a7090">&#8593; Lakes Region &amp; White Mountains &#8212; outside our service area</text>
<text x="546" y="93.6" font-family="'Segoe UI',Arial,Helvetica,sans-serif" font-size="10.5" font-weight="700" fill="#e85f2d">Squam Lake</text>
<text x="546" y="107.6" font-family="'Segoe UI',Arial,Helvetica,sans-serif" font-size="9" fill="#e85f2d">northern service edge</text>
<text x="369" y="162.0" text-anchor="middle" font-family="'Segoe UI',Arial,Helvetica,sans-serif" font-size="12" letter-spacing="1.5" font-weight="700" fill="#7f93ad">LAKES REGION</text>
<text x="30" y="420.0" font-family="'Segoe UI',Arial,Helvetica,sans-serif" font-size="11" fill="#9fb2c9">VERMONT</text>
<text x="690" y="350.0" text-anchor="end" font-family="'Segoe UI',Arial,Helvetica,sans-serif" font-size="11" fill="#9fb2c9">MAINE</text>
<text x="300" y="828.8" text-anchor="middle" font-family="'Segoe UI',Arial,Helvetica,sans-serif" font-size="11" fill="#9fb2c9">MASSACHUSETTS</text>
<g transform="translate(50,48)"><path d="M0,-16 L6,7 L0,2 L-6,7 Z" fill="#0a1628"/><text x="0" y="23" text-anchor="middle" font-family="'Segoe UI',Arial,Helvetica,sans-serif" font-size="12" font-weight="700" fill="#0a1628">N</text></g>
<g><rect x="345.0" y="409.2" width="22" height="16" rx="3.5" fill="#fff" stroke="#5b6b7d" stroke-width="1.4"/><text x="356" y="421.2" text-anchor="middle" font-family="'Segoe UI',Arial,Helvetica,sans-serif" font-size="10" font-weight="700" fill="#5b6b7d">93</text></g>
<g><rect x="227.0" y="342.0" width="22" height="16" rx="3.5" fill="#fff" stroke="#5b6b7d" stroke-width="1.4"/><text x="238" y="354.0" text-anchor="middle" font-family="'Segoe UI',Arial,Helvetica,sans-serif" font-size="10" font-weight="700" fill="#5b6b7d">89</text></g>
<g><rect x="625.0" y="596.8" width="22" height="16" rx="3.5" fill="#fff" stroke="#5b6b7d" stroke-width="1.4"/><text x="636" y="608.8" text-anchor="middle" font-family="'Segoe UI',Arial,Helvetica,sans-serif" font-size="10" font-weight="700" fill="#5b6b7d">95</text></g>
<g><rect x="464.0" y="496.0" width="16" height="16" rx="3.5" fill="#fff" stroke="#8392a3" stroke-width="1.4"/><text x="472" y="508.0" text-anchor="middle" font-family="'Segoe UI',Arial,Helvetica,sans-serif" font-size="10" font-weight="700" fill="#8392a3">4</text></g>
<g><rect x="286.0" y="647.2" width="28" height="16" rx="3.5" fill="#fff" stroke="#8392a3" stroke-width="1.4"/><text x="300" y="659.2" text-anchor="middle" font-family="'Segoe UI',Arial,Helvetica,sans-serif" font-size="10" font-weight="700" fill="#8392a3">101</text></g>
<g><rect x="549.0" y="381.2" width="22" height="16" rx="3.5" fill="#fff" stroke="#8392a3" stroke-width="1.4"/><text x="560" y="393.2" text-anchor="middle" font-family="'Segoe UI',Arial,Helvetica,sans-serif" font-size="10" font-weight="700" fill="#8392a3">16</text></g>
<g><rect x="421.0" y="272.0" width="22" height="16" rx="3.5" fill="#fff" stroke="#8392a3" stroke-width="1.4"/><text x="432" y="284.0" text-anchor="middle" font-family="'Segoe UI',Arial,Helvetica,sans-serif" font-size="10" font-weight="700" fill="#8392a3">11</text></g>
<g><title>Squam Lake</title><circle cx="367" cy="96.6" r="13" fill="#e8a020" stroke="#fff" stroke-width="1.7"/><text x="367" y="102.6" text-anchor="middle" font-family="'Segoe UI',Arial,Helvetica,sans-serif" font-size="18" font-weight="700" fill="#fff">1</text></g>
<g><title>Newfound Lake</title><circle cx="290" cy="187.6" r="13" fill="#2d7dd2" stroke="#fff" stroke-width="1.7"/><text x="290" y="193.6" text-anchor="middle" font-family="'Segoe UI',Arial,Helvetica,sans-serif" font-size="18" font-weight="700" fill="#fff">2</text></g>
<g><title>Lake Winnipesaukee</title><circle cx="450" cy="212.8" r="13" fill="#2d7dd2" stroke="#fff" stroke-width="1.7"/><text x="450" y="218.8" text-anchor="middle" font-family="'Segoe UI',Arial,Helvetica,sans-serif" font-size="18" font-weight="700" fill="#fff">3</text></g>
<g><title>Winnisquam Lake</title><circle cx="385" cy="263.2" r="13" fill="#2d7dd2" stroke="#fff" stroke-width="1.7"/><text x="385" y="269.2" text-anchor="middle" font-family="'Segoe UI',Arial,Helvetica,sans-serif" font-size="18" font-weight="700" fill="#fff">4</text></g>
<g><title>Lake Sunapee</title><circle cx="199" cy="368.2" r="13" fill="#2d7dd2" stroke="#fff" stroke-width="1.7"/><text x="199" y="374.2" text-anchor="middle" font-family="'Segoe UI',Arial,Helvetica,sans-serif" font-size="18" font-weight="700" fill="#fff">5</text></g>
<g><title>Northwood Lake</title><circle cx="483" cy="478.8" r="13" fill="#2d7dd2" stroke="#fff" stroke-width="1.7"/><text x="483" y="484.8" text-anchor="middle" font-family="'Segoe UI',Arial,Helvetica,sans-serif" font-size="18" font-weight="700" fill="#fff">6</text></g>
<g><title>Pleasant Lake</title><circle cx="470" cy="534.8" r="13" fill="#2d7dd2" stroke="#fff" stroke-width="1.7"/><text x="470" y="540.8" text-anchor="middle" font-family="'Segoe UI',Arial,Helvetica,sans-serif" font-size="18" font-weight="700" fill="#fff">7</text></g>
<g><title>Pawtuckaway Lake</title><circle cx="503" cy="555.8" r="13" fill="#2d7dd2" stroke="#fff" stroke-width="1.7"/><text x="503" y="561.8" text-anchor="middle" font-family="'Segoe UI',Arial,Helvetica,sans-serif" font-size="18" font-weight="700" fill="#fff">8</text></g>
<g><title>Angle Pond</title><circle cx="490" cy="637.0" r="13" fill="#2d7dd2" stroke="#fff" stroke-width="1.7"/><text x="490" y="643.0" text-anchor="middle" font-family="'Segoe UI',Arial,Helvetica,sans-serif" font-size="18" font-weight="700" fill="#fff">9</text></g>
<g><title>Arlington Mill Reservoir</title><circle cx="512" cy="627.2" r="13" fill="#2d7dd2" stroke="#fff" stroke-width="1.7"/><text x="512" y="633.2" text-anchor="middle" font-family="'Segoe UI',Arial,Helvetica,sans-serif" font-size="18" font-weight="700" fill="#fff">10</text></g>
<g><title>Big Island Pond</title><circle cx="476" cy="700.0" r="13" fill="#2d7dd2" stroke="#fff" stroke-width="1.7"/><text x="476" y="706.0" text-anchor="middle" font-family="'Segoe UI',Arial,Helvetica,sans-serif" font-size="18" font-weight="700" fill="#fff">11</text></g>
<g><title>Canobie Lake</title><circle cx="452" cy="733.6" r="13" fill="#2d7dd2" stroke="#fff" stroke-width="1.7"/><text x="452" y="739.6" text-anchor="middle" font-family="'Segoe UI',Arial,Helvetica,sans-serif" font-size="18" font-weight="700" fill="#fff">12</text></g>
<g><title>Cobbetts Pond</title><circle cx="430" cy="728.0" r="13" fill="#2d7dd2" stroke="#fff" stroke-width="1.7"/><text x="430" y="734.0" text-anchor="middle" font-family="'Segoe UI',Arial,Helvetica,sans-serif" font-size="18" font-weight="700" fill="#fff">13</text></g>
<g><title>Country Pond</title><circle cx="524" cy="691.6" r="13" fill="#2d7dd2" stroke="#fff" stroke-width="1.7"/><text x="524" y="697.6" text-anchor="middle" font-family="'Segoe UI',Arial,Helvetica,sans-serif" font-size="18" font-weight="700" fill="#fff">14</text></g>
<g><title>Great Pond</title><circle cx="538" cy="658.0" r="13" fill="#2d7dd2" stroke="#fff" stroke-width="1.7"/><text x="538" y="664.0" text-anchor="middle" font-family="'Segoe UI',Arial,Helvetica,sans-serif" font-size="18" font-weight="700" fill="#fff">15</text></g>
</svg>